<svg width="128" height="26" viewBox="0 0 128 26" fill="none" xmlns="http://www.w3.org/2000/svg">
<g clip-path="url(#clip0)">
<path d="M18.1353 0.314819H8.76025C4.44619 0.314819 0.947754 3.81326 0.947754 8.12732V17.5023C0.947754 21.8164 4.44619 25.3148 8.76025 25.3148H18.1353C22.4493 25.3148 25.9478 21.8164 25.9478 17.5023V8.12732C25.9478 3.81326 22.4493 0.314819 18.1353 0.314819ZM23.604 17.5023C23.604 20.5179 21.1509 22.9711 18.1353 22.9711H8.76025C5.74463 22.9711 3.2915 20.5179 3.2915 17.5023V8.12732C3.2915 5.11169 5.74463 2.65857 8.76025 2.65857H18.1353C21.1509 2.65857 23.604 5.11169 23.604 8.12732V17.5023Z" fill="url(#paint0_linear)"/>
<path d="M13.4478 6.56482C9.99619 6.56482 7.19775 9.36326 7.19775 12.8148C7.19775 16.2664 9.99619 19.0648 13.4478 19.0648C16.8993 19.0648 19.6978 16.2664 19.6978 12.8148C19.6978 9.36326 16.8993 6.56482 13.4478 6.56482ZM13.4478 16.7211C11.2946 16.7211 9.5415 14.9679 9.5415 12.8148C9.5415 10.6601 11.2946 8.90857 13.4478 8.90857C15.6009 8.90857 17.354 10.6601 17.354 12.8148C17.354 14.9679 15.6009 16.7211 13.4478 16.7211Z" fill="url(#paint1_linear)"/>
<path d="M20.1666 6.92892C20.6265 6.92892 20.9994 6.55606 20.9994 6.09611C20.9994 5.63617 20.6265 5.26331 20.1666 5.26331C19.7066 5.26331 19.3337 5.63617 19.3337 6.09611C19.3337 6.55606 19.7066 6.92892 20.1666 6.92892Z" fill="url(#paint2_linear)"/>
<path d="M68.8228 0.314819H50.0728C48.3493 0.314819 46.9478 1.71638 46.9478 3.43982V22.1898C46.9478 23.9133 48.3493 25.3148 50.0728 25.3148H68.8228C70.5462 25.3148 71.9478 23.9133 71.9478 22.1898V3.43982C71.9478 1.71638 70.5462 0.314819 68.8228 0.314819Z" fill="#1976D2"/>
<path d="M68.0415 12.8148H64.1353V9.68982C64.1353 8.82732 64.8353 8.90857 65.6978 8.90857H67.2603V5.00232H64.1353C61.5462 5.00232 59.4478 7.10076 59.4478 9.68982V12.8148H56.3228V16.7211H59.4478V25.3148H64.1353V16.7211H66.479L68.0415 12.8148Z" fill="#FAFAFA"/>
<path d="M110.099 22.7306H112.193C112.193 22.7306 112.827 22.6605 113.149 22.3121C113.447 21.9922 113.436 21.3919 113.436 21.3919C113.436 21.3919 113.394 18.5809 114.7 18.1669C115.986 17.7593 117.638 20.8836 119.388 22.0864C120.712 22.9957 121.717 22.7963 121.717 22.7963L126.399 22.7306C126.399 22.7306 128.849 22.5794 127.688 20.6536C127.593 20.4958 127.011 19.2295 124.206 16.6266C121.27 13.9011 121.665 14.3437 125.201 9.63099C127.355 6.76087 128.216 5.00813 127.946 4.25883C127.69 3.54458 126.106 3.733 126.106 3.733L120.839 3.76368C120.839 3.76368 120.449 3.7111 120.157 3.88418C119.875 4.05507 119.693 4.44944 119.693 4.44944C119.693 4.44944 118.858 6.67104 117.745 8.55962C115.399 12.5449 114.459 12.7553 114.075 12.5077C113.184 11.9315 113.407 10.1897 113.407 8.95399C113.407 5.09138 113.992 3.48105 112.266 3.06477C111.692 2.92674 111.271 2.83472 109.805 2.81939C107.925 2.79967 106.333 2.82596 105.432 3.26634C104.832 3.55992 104.37 4.21501 104.652 4.25226C105.001 4.29827 105.789 4.46478 106.208 5.03442C106.749 5.76838 106.729 7.42034 106.729 7.42034C106.729 7.42034 107.04 11.9665 106.004 12.5318C105.292 12.9196 104.317 12.1286 102.225 8.51142C101.153 6.66009 100.343 4.61157 100.343 4.61157C100.343 4.61157 100.187 4.23035 99.9088 4.02659C99.5714 3.77901 99.0982 3.70014 99.0982 3.70014L94.0897 3.73081C94.0897 3.73081 93.3382 3.75272 93.0622 4.07917C92.8168 4.37057 93.0425 4.97088 93.0425 4.97088C93.0425 4.97088 96.9642 14.1443 101.403 18.7694C105.476 23.0088 110.099 22.7306 110.099 22.7306Z" fill="#1E88E5"/>
</g>
<defs>
<linearGradient id="paint0_linear" x1="3.23627" y1="23.0265" x2="23.6592" y2="2.60318" gradientUnits="userSpaceOnUse">
<stop stop-color="#FFC107"/>
<stop offset="0.507" stop-color="#F44336"/>
<stop offset="0.99" stop-color="#9C27B0"/>
</linearGradient>
<linearGradient id="paint1_linear" x1="9.02846" y1="17.2341" x2="17.8671" y2="8.39552" gradientUnits="userSpaceOnUse">
<stop stop-color="#FFC107"/>
<stop offset="0.507" stop-color="#F44336"/>
<stop offset="0.99" stop-color="#9C27B0"/>
</linearGradient>
<linearGradient id="paint2_linear" x1="19.5777" y1="6.6851" x2="20.7554" y2="5.50728" gradientUnits="userSpaceOnUse">
<stop stop-color="#FFC107"/>
<stop offset="0.507" stop-color="#F44336"/>
<stop offset="0.99" stop-color="#9C27B0"/>
</linearGradient>
<clipPath id="clip0">
<rect x="0.947754" y="0.314819" width="127.052" height="25" fill="white"/>
</clipPath>
</defs>
</svg>
